<svg width="24" height="27" viewBox="0 0 24 27" fill="none" xmlns="http://www.w3.org/2000/svg">
<path d="M16.8031 14.3873L21.514 22.5884C21.6229 22.7909 21.7858 22.9593 21.9847 23.0748C22.1836 23.1904 22.4107 23.2486 22.6407 23.2429C22.8149 23.2463 22.9881 23.2149 23.1501 23.1506C23.312 23.0862 23.4595 22.9902 23.5837 22.8681C23.708 22.746 23.8067 22.6003 23.8738 22.4396C23.941 22.279 23.9754 22.1065 23.9749 21.9323L23.9991 5.5301C24.01 5.23474 23.9202 4.94441 23.7444 4.70671C23.5686 4.469 23.3172 4.29801 23.0314 4.22176C22.7456 4.14551 22.4423 4.16852 22.1713 4.28703C21.9003 4.40553 21.6776 4.6125 21.5398 4.87401L16.8031 13.0494C16.6883 13.2488 16.6298 13.4755 16.6341 13.7055C16.6292 13.9437 16.6875 14.1789 16.8031 14.3873Z" fill="white"/>
<path d="M11.9233 17.1773L16.6583 25.3543C16.7779 25.5611 16.8448 25.7942 16.8531 26.0329C16.8408 26.3807 16.6953 26.7105 16.4468 26.9544C16.1982 27.1982 15.8655 27.3375 15.5172 27.3435C15.2872 27.3449 15.0608 27.2862 14.8606 27.173L0.655307 18.9494C0.455963 18.8392 0.289961 18.6774 0.174709 18.4811C0.0594565 18.2847 -0.00080114 18.061 0.000248564 17.8334C-0.00317542 17.6562 0.028805 17.4801 0.094323 17.3153C0.159841 17.1506 0.257582 17.0006 0.381822 16.8741C0.506061 16.7476 0.654305 16.6471 0.817886 16.5785C0.981467 16.5099 1.1571 16.4745 1.33451 16.4746L10.7821 16.5228C11.014 16.5174 11.243 16.5755 11.4442 16.6909C11.6453 16.8063 11.811 16.9745 11.9233 17.1773Z" fill="white"/>
<path d="M10.7584 10.8239H1.31237C1.02339 10.823 0.742746 10.7271 0.513817 10.5509C0.284889 10.3747 0.120429 10.128 0.0458666 9.84906C-0.0286955 9.57011 -0.00920764 9.27439 0.101315 9.00761C0.211838 8.74084 0.40724 8.51787 0.657314 8.37317L14.8851 0.194575C15.0924 0.0744419 15.3264 0.00758602 15.5659 0C15.9155 0.00795513 16.2481 0.151877 16.4931 0.401144C16.7381 0.650411 16.876 0.985347 16.8776 1.33469C16.8693 1.56582 16.8023 1.79104 16.6829 1.98917L11.8995 10.1662C11.7854 10.3676 11.6194 10.5348 11.4187 10.6505C11.2181 10.7662 10.9901 10.826 10.7584 10.8239Z" fill="white"/>
</svg>
