<?xml version="1.0" encoding="utf-8"?>
<!-- Generator: Adobe Illustrator 16.0.0, SVG Export Plug-In . SVG Version: 6.00 Build 0)  -->
<!DOCTYPE svg PUBLIC "-//W3C//DTD SVG 1.1//EN" "http://www.w3.org/Graphics/SVG/1.1/DTD/svg11.dtd">
<svg version="1.1" id="Layer_1" xmlns="http://www.w3.org/2000/svg" xmlns:xlink="http://www.w3.org/1999/xlink" x="0px" y="0px"
	 width="540px" height="270px" viewBox="0 0 540 270" enable-background="new 0 0 540 270" xml:space="preserve">
<g>
	<g>
		<path fill="#F2F2F2" d="M539,265c0,2.2-1.8,4-4,4H5c-2.2,0-4-1.8-4-4V5c0-2.2,1.8-4,4-4h530c2.2,0,4,1.8,4,4V265z"/>
		<path fill="none" stroke="#E6E7E8" stroke-miterlimit="10" d="M539,265c0,2.2-1.8,4-4,4H5c-2.2,0-4-1.8-4-4V5c0-2.2,1.8-4,4-4h530
			c2.2,0,4,1.8,4,4V265z"/>
	</g>
	<g>
		<path fill="#784E9F" d="M253.701,48.021v-6.121h-7.802v6.121h-1.66V34.678h1.66v5.741h7.802v-5.741h1.66v13.343H253.701z"/>
		<path fill="#784E9F" d="M257.859,43.18c0-2.801,1.84-5.062,4.78-5.062s4.781,2.261,4.781,5.062c0,2.8-1.841,5.081-4.781,5.081
			S257.859,45.98,257.859,43.18z M265.84,43.18c0-1.96-1.14-3.721-3.2-3.721s-3.2,1.761-3.2,3.721c0,1.98,1.14,3.741,3.2,3.741
			S265.84,45.16,265.84,43.18z"/>
		<path fill="#784E9F" d="M269.859,48.021v-9.662h1.5v1.541c0.779-1,1.9-1.761,3.221-1.761v1.541c-0.18-0.02-0.36-0.04-0.58-0.04
			c-0.94,0-2.201,0.76-2.641,1.541v6.841H269.859z"/>
		<path fill="#784E9F" d="M276.198,35.978c0-0.56,0.46-1.021,1.021-1.021s1,0.46,1,1.021s-0.439,1-1,1
			S276.198,36.538,276.198,35.978z M276.459,48.021v-9.662h1.5v9.662H276.459z"/>
		<path fill="#784E9F" d="M280.498,48.021v-1.18l5.321-7.162h-5.321v-1.32h7.281v1.14l-5.361,7.202h5.441v1.32H280.498z"/>
		<path fill="#784E9F" d="M289.838,43.18c0-2.801,1.84-5.062,4.781-5.062c2.939,0,4.781,2.261,4.781,5.062
			c0,2.8-1.842,5.081-4.781,5.081C291.678,48.261,289.838,45.98,289.838,43.18z M297.819,43.18c0-1.96-1.14-3.721-3.2-3.721
			s-3.201,1.761-3.201,3.721c0,1.98,1.141,3.741,3.201,3.741S297.819,45.16,297.819,43.18z"/>
		<path fill="#784E9F" d="M308.379,48.021v-6.321c0-1.72-0.88-2.241-2.18-2.241c-1.181,0-2.281,0.72-2.861,1.5v7.062h-1.5v-9.662
			h1.5v1.4c0.68-0.82,2-1.641,3.461-1.641c2,0,3.061,1.021,3.061,3.121v6.781H308.379z"/>
		<path fill="#784E9F" d="M313.178,46v-6.321h-1.601v-1.32h1.601v-2.641h1.52v2.641h1.961v1.32h-1.961v6.001
			c0,0.72,0.32,1.24,0.961,1.24c0.439,0,0.82-0.2,1.02-0.42l0.44,1.141c-0.38,0.36-0.921,0.62-1.78,0.62
			C313.897,48.261,313.178,47.44,313.178,46z"/>
		<path fill="#784E9F" d="M324.799,48.021v-1.1c-0.781,0.88-1.9,1.34-3.201,1.34c-1.62,0-3.361-1.101-3.361-3.201
			c0-2.181,1.721-3.181,3.361-3.181c1.32,0,2.42,0.42,3.201,1.3v-1.741c0-1.28-1.041-2.021-2.441-2.021c-1.16,0-2.1,0.4-2.96,1.34
			l-0.7-1.04c1.04-1.08,2.28-1.601,3.861-1.601c2.06,0,3.74,0.92,3.74,3.261v6.642H324.799z M324.799,45.98v-1.84
			c-0.58-0.78-1.601-1.18-2.641-1.18c-1.42,0-2.4,0.88-2.4,2.101c0,1.24,0.98,2.12,2.4,2.12
			C323.198,47.18,324.219,46.78,324.799,45.98z"/>
		<path fill="#784E9F" d="M329.317,48.021V34.678h1.5v13.343H329.317z"/>
		<path fill="#784E9F" d="M345.038,48.021v-1.1c-0.78,0.88-1.9,1.34-3.2,1.34c-1.621,0-3.361-1.101-3.361-3.201
			c0-2.181,1.721-3.181,3.361-3.181c1.32,0,2.42,0.42,3.2,1.3v-1.741c0-1.28-1.04-2.021-2.44-2.021c-1.16,0-2.101,0.4-2.961,1.34
			l-0.699-1.04c1.039-1.08,2.279-1.601,3.86-1.601c2.061,0,3.741,0.92,3.741,3.261v6.642H345.038z M345.038,45.98v-1.84
			c-0.58-0.78-1.601-1.18-2.641-1.18c-1.42,0-2.4,0.88-2.4,2.101c0,1.24,0.98,2.12,2.4,2.12
			C343.438,47.18,344.458,46.78,345.038,45.98z"/>
		<path fill="#784E9F" d="M356.098,48.021v-6.321c0-1.72-0.879-2.241-2.18-2.241c-1.18,0-2.281,0.72-2.861,1.5v7.062h-1.5v-9.662
			h1.5v1.4c0.681-0.82,2.001-1.641,3.461-1.641c2.001,0,3.061,1.021,3.061,3.121v6.781H356.098z"/>
		<path fill="#784E9F" d="M367.598,48.021v-1.44c-0.72,0.98-1.9,1.681-3.26,1.681c-2.521,0-4.301-1.92-4.301-5.061
			c0-3.101,1.779-5.082,4.301-5.082c1.3,0,2.48,0.64,3.26,1.701v-5.141h1.5v13.343H367.598z M367.598,45.38v-4.361
			c-0.52-0.84-1.7-1.561-2.881-1.561c-1.96,0-3.12,1.601-3.12,3.741c0,2.14,1.16,3.721,3.12,3.721
			C365.897,46.92,367.078,46.22,367.598,45.38z"/>
		<path fill="#784E9F" d="M381.337,48.021l-5.381-13.343h1.9l4.501,11.522l4.501-11.522h1.9l-5.361,13.343H381.337z"/>
		<path fill="#784E9F" d="M388.676,43.18c0-2.801,2-5.062,4.762-5.062c2.92,0,4.641,2.281,4.641,5.181v0.38h-7.802
			c0.12,1.82,1.38,3.341,3.461,3.341c1.12,0,2.22-0.44,3.001-1.24l0.72,0.98c-0.98,0.96-2.28,1.5-3.841,1.5
			C390.736,48.261,388.676,46.2,388.676,43.18z M393.417,39.359c-2.061,0-3.081,1.74-3.161,3.201h6.342
			C396.578,41.139,395.617,39.359,393.417,39.359z"/>
		<path fill="#784E9F" d="M400.496,48.021v-9.662h1.5v1.541c0.78-1,1.9-1.761,3.221-1.761v1.541c-0.18-0.02-0.359-0.04-0.58-0.04
			c-0.939,0-2.2,0.76-2.641,1.541v6.841H400.496z"/>
		<path fill="#784E9F" d="M407.396,46v-6.321h-1.601v-1.32h1.601v-2.641h1.521v2.641h1.961v1.32h-1.961v6.001
			c0,0.72,0.32,1.24,0.96,1.24c0.44,0,0.82-0.2,1.021-0.42l0.439,1.141c-0.379,0.36-0.92,0.62-1.779,0.62
			C408.115,48.261,407.396,47.44,407.396,46z"/>
		<path fill="#784E9F" d="M412.715,35.978c0-0.56,0.461-1.021,1.021-1.021c0.561,0,1.001,0.46,1.001,1.021s-0.44,1-1.001,1
			C413.176,36.978,412.715,36.538,412.715,35.978z M412.976,48.021v-9.662h1.5v9.662H412.976z"/>
		<path fill="#784E9F" d="M416.916,43.18c0-2.861,1.939-5.062,4.82-5.062c1.76,0,2.801,0.72,3.541,1.681l-1,0.9
			c-0.641-0.88-1.461-1.24-2.461-1.24c-2.041,0-3.341,1.581-3.341,3.721c0,2.14,1.3,3.741,3.341,3.741c1,0,1.82-0.4,2.461-1.26
			l1,0.92c-0.74,0.96-1.781,1.681-3.541,1.681C418.855,48.261,416.916,46.04,416.916,43.18z"/>
		<path fill="#784E9F" d="M433.436,48.021v-1.1c-0.779,0.88-1.9,1.34-3.2,1.34c-1.62,0-3.36-1.101-3.36-3.201
			c0-2.181,1.721-3.181,3.36-3.181c1.32,0,2.421,0.42,3.2,1.3v-1.741c0-1.28-1.039-2.021-2.439-2.021c-1.16,0-2.102,0.4-2.961,1.34
			l-0.7-1.04c1.04-1.08,2.28-1.601,3.86-1.601c2.061,0,3.741,0.92,3.741,3.261v6.642H433.436z M433.436,45.98v-1.84
			c-0.58-0.78-1.6-1.18-2.641-1.18c-1.42,0-2.4,0.88-2.4,2.101c0,1.24,0.98,2.12,2.4,2.12
			C431.836,47.18,432.855,46.78,433.436,45.98z"/>
		<path fill="#784E9F" d="M437.955,48.021V34.678h1.5v13.343H437.955z"/>
		<path fill="#784E9F" d="M446.895,46.14l1-1.28c0.86,1,2.301,1.92,4.182,1.92c2.38,0,3.141-1.28,3.141-2.32
			c0-3.441-7.902-1.521-7.902-6.282c0-2.2,1.961-3.721,4.602-3.721c2.02,0,3.6,0.7,4.721,1.88l-1,1.22c-1-1.12-2.4-1.6-3.861-1.6
			c-1.58,0-2.74,0.86-2.74,2.121c0,3,7.901,1.28,7.901,6.261c0,1.92-1.32,3.921-4.921,3.921
			C449.715,48.261,447.994,47.38,446.895,46.14z"/>
		<path fill="#784E9F" d="M458.795,43.18c0-2.861,1.939-5.062,4.82-5.062c1.76,0,2.801,0.72,3.541,1.681l-1,0.9
			c-0.641-0.88-1.461-1.24-2.461-1.24c-2.041,0-3.341,1.581-3.341,3.721c0,2.14,1.3,3.741,3.341,3.741c1,0,1.82-0.4,2.461-1.26
			l1,0.92c-0.74,0.96-1.781,1.681-3.541,1.681C460.734,48.261,458.795,46.04,458.795,43.18z"/>
		<path fill="#784E9F" d="M475.315,48.021v-1.1c-0.78,0.88-1.9,1.34-3.2,1.34c-1.621,0-3.361-1.101-3.361-3.201
			c0-2.181,1.721-3.181,3.361-3.181c1.32,0,2.42,0.42,3.2,1.3v-1.741c0-1.28-1.04-2.021-2.44-2.021c-1.16,0-2.101,0.4-2.961,1.34
			l-0.699-1.04c1.039-1.08,2.279-1.601,3.86-1.601c2.061,0,3.741,0.92,3.741,3.261v6.642H475.315z M475.315,45.98v-1.84
			c-0.58-0.78-1.601-1.18-2.641-1.18c-1.42,0-2.4,0.88-2.4,2.101c0,1.24,0.98,2.12,2.4,2.12
			C473.715,47.18,474.735,46.78,475.315,45.98z"/>
		<path fill="#784E9F" d="M479.834,48.021V34.678h1.5v13.343H479.834z"/>
		<path fill="#784E9F" d="M484.074,35.978c0-0.56,0.46-1.021,1.02-1.021c0.561,0,1.001,0.46,1.001,1.021s-0.44,1-1.001,1
			C484.534,36.978,484.074,36.538,484.074,35.978z M484.334,48.021v-9.662h1.5v9.662H484.334z"/>
		<path fill="#784E9F" d="M495.375,48.021v-6.321c0-1.72-0.88-2.241-2.18-2.241c-1.181,0-2.281,0.72-2.861,1.5v7.062h-1.5v-9.662
			h1.5v1.4c0.68-0.82,2-1.641,3.461-1.641c2,0,3.061,1.021,3.061,3.121v6.781H495.375z"/>
		<path fill="#784E9F" d="M499.854,50.481l0.76-1.08c0.801,0.94,1.761,1.3,3.141,1.3c1.601,0,3.121-0.78,3.121-2.821v-1.46
			c-0.721,0.98-1.9,1.721-3.261,1.721c-2.521,0-4.301-1.88-4.301-5.001c0-3.101,1.761-5.021,4.301-5.021
			c1.3,0,2.48,0.64,3.261,1.701v-1.46h1.5v9.522c0,3.061-2.26,4.061-4.621,4.061C502.134,51.941,501.014,51.621,499.854,50.481z
			 M506.875,45.24v-4.241c-0.54-0.82-1.701-1.541-2.881-1.541c-1.961,0-3.121,1.541-3.121,3.681c0,2.12,1.16,3.661,3.121,3.661
			C505.174,46.8,506.335,46.08,506.875,45.24z"/>
		<path fill="#784E9F" d="M418.315,69.18c0-2.801,1.841-5.062,4.78-5.062c2.941,0,4.781,2.261,4.781,5.062
			c0,2.8-1.84,5.081-4.781,5.081C420.156,74.261,418.315,71.98,418.315,69.18z M426.297,69.18c0-1.96-1.141-3.721-3.201-3.721
			s-3.2,1.761-3.2,3.721c0,1.98,1.14,3.741,3.2,3.741S426.297,71.16,426.297,69.18z"/>
		<path fill="#784E9F" d="M436.856,74.021v-6.321c0-1.72-0.88-2.241-2.181-2.241c-1.18,0-2.28,0.72-2.86,1.5v7.062h-1.5v-9.662h1.5
			v1.4c0.681-0.82,2.001-1.641,3.461-1.641c2.001,0,3.061,1.021,3.061,3.121v6.781H436.856z"/>
		<path fill="#784E9F" d="M456.057,74.021v-6.121h-7.802v6.121h-1.66V60.678h1.66v5.741h7.802v-5.741h1.66v13.343H456.057z"/>
		<path fill="#784E9F" d="M460.215,69.18c0-2.801,2-5.062,4.76-5.062c2.922,0,4.642,2.281,4.642,5.181v0.38h-7.802
			c0.12,1.82,1.381,3.341,3.461,3.341c1.12,0,2.221-0.44,3-1.24l0.721,0.98c-0.98,0.96-2.281,1.5-3.841,1.5
			C462.274,74.261,460.215,72.2,460.215,69.18z M464.955,65.359c-2.061,0-3.08,1.74-3.16,3.201h6.341
			C468.115,67.139,467.156,65.359,464.955,65.359z"/>
		<path fill="#784E9F" d="M472.034,74.021v-9.662h1.5v1.541c0.78-1,1.9-1.761,3.221-1.761v1.541c-0.18-0.02-0.36-0.04-0.58-0.04
			c-0.94,0-2.2,0.76-2.641,1.541v6.841H472.034z"/>
		<path fill="#784E9F" d="M478.074,69.18c0-2.801,1.84-5.062,4.781-5.062c2.939,0,4.781,2.261,4.781,5.062
			c0,2.8-1.842,5.081-4.781,5.081C479.914,74.261,478.074,71.98,478.074,69.18z M486.056,69.18c0-1.96-1.14-3.721-3.2-3.721
			s-3.201,1.761-3.201,3.721c0,1.98,1.141,3.741,3.201,3.741S486.056,71.16,486.056,69.18z"/>
		<path fill="#784E9F" d="M496.654,74.021l-3.46-4.341l-1.62,1.58v2.761h-1.5V60.678h1.5V69.5l5.08-5.141h1.9l-4.28,4.381
			l4.301,5.281H496.654z"/>
		<path fill="#784E9F" d="M506.875,74.021v-1.36c-0.74,0.84-2,1.601-3.44,1.601c-2.021,0-3.081-1-3.081-3.081v-6.821h1.5v6.361
			c0,1.7,0.861,2.201,2.182,2.201c1.16,0,2.279-0.68,2.84-1.46v-7.102h1.5v9.662H506.875z"/>
	</g>
	<g opacity="0.8">
		<path d="M25.764,130.262v-10.677h3.648c3.33,0,5.475,2.321,5.475,5.347c0,3.041-2.145,5.33-5.475,5.33H25.764z M33.51,124.932
			c0-2.305-1.456-4.162-4.098-4.162h-2.32v8.308h2.32C32.006,129.077,33.51,127.221,33.51,124.932z"/>
		<path d="M36.676,132.198c0.176,0.08,0.464,0.128,0.656,0.128c0.527,0,0.88-0.176,1.152-0.816l0.512-1.168l-3.233-7.812h1.312
			l2.562,6.339l2.576-6.339h1.297l-3.873,9.3c-0.465,1.121-1.249,1.553-2.273,1.569c-0.256,0-0.656-0.049-0.864-0.112
			L36.676,132.198z"/>
		<path d="M49.989,130.262v-5.058c0-1.377-0.704-1.793-1.745-1.793c-0.943,0-1.824,0.576-2.289,1.2v5.65h-1.199v-7.731h1.199v1.121
			c0.545-0.656,1.602-1.312,2.77-1.312c1.601,0,2.449,0.816,2.449,2.497v5.426H49.989z"/>
		<path d="M53.139,126.388c0-2.24,1.473-4.049,3.825-4.049s3.825,1.809,3.825,4.049c0,2.241-1.473,4.066-3.825,4.066
			S53.139,128.629,53.139,126.388z M59.525,126.388c0-1.568-0.912-2.977-2.562-2.977c-1.648,0-2.562,1.408-2.562,2.977
			c0,1.585,0.913,2.994,2.562,2.994C58.613,129.382,59.525,127.973,59.525,126.388z"/>
		<path d="M28.867,147.957l0.801-1.024c0.688,0.801,1.84,1.537,3.345,1.537c1.905,0,2.513-1.024,2.513-1.857
			c0-2.753-6.322-1.216-6.322-5.025c0-1.761,1.568-2.978,3.682-2.978c1.617,0,2.881,0.561,3.777,1.505l-0.801,0.977
			c-0.8-0.896-1.92-1.281-3.089-1.281c-1.265,0-2.192,0.688-2.192,1.697c0,2.4,6.322,1.024,6.322,5.01
			c0,1.537-1.057,3.138-3.938,3.138C31.124,149.654,29.748,148.949,28.867,147.957z"/>
		<path d="M38.627,139.826c0-0.448,0.368-0.816,0.816-0.816s0.801,0.368,0.801,0.816s-0.353,0.8-0.801,0.8
			S38.627,140.274,38.627,139.826z M38.836,149.462v-7.731h1.199v7.731H38.836z"/>
		<path d="M42.066,149.462v-0.944l4.258-5.73h-4.258v-1.057h5.826v0.913l-4.289,5.762h4.354v1.057H42.066z"/>
		<path d="M49.539,145.588c0-2.24,1.6-4.049,3.809-4.049c2.338,0,3.714,1.824,3.714,4.146v0.304h-6.243
			c0.097,1.457,1.105,2.673,2.77,2.673c0.896,0,1.777-0.352,2.401-0.992l0.576,0.784c-0.784,0.769-1.825,1.201-3.073,1.201
			C51.188,149.654,49.539,148.005,49.539,145.588z M53.332,142.531c-1.648,0-2.465,1.393-2.529,2.561h5.074
			C55.861,143.956,55.093,142.531,53.332,142.531z"/>
	</g>
	<g opacity="0.8">
		<path d="M288.48,227.724v-10.677h3.649c3.329,0,5.474,2.321,5.474,5.347c0,3.041-2.145,5.33-5.474,5.33H288.48z M296.228,222.394
			c0-2.305-1.456-4.162-4.098-4.162h-2.321v8.308h2.321C294.723,226.539,296.228,224.683,296.228,222.394z"/>
		<path d="M299.393,229.66c0.176,0.08,0.465,0.128,0.656,0.128c0.528,0,0.881-0.176,1.152-0.816l0.512-1.168l-3.232-7.812h1.312
			l2.561,6.339l2.577-6.339h1.296l-3.873,9.3c-0.464,1.121-1.248,1.553-2.273,1.569c-0.256,0-0.656-0.049-0.863-0.112
			L299.393,229.66z"/>
		<path d="M312.707,227.724v-5.058c0-1.377-0.705-1.793-1.745-1.793c-0.944,0-1.825,0.576-2.289,1.2v5.65h-1.2v-7.731h1.2v1.121
			c0.544-0.656,1.601-1.312,2.769-1.312c1.602,0,2.449,0.816,2.449,2.497v5.426H312.707z"/>
		<path d="M315.855,223.85c0-2.24,1.473-4.049,3.826-4.049c2.353,0,3.825,1.809,3.825,4.049c0,2.241-1.473,4.066-3.825,4.066
			C317.328,227.916,315.855,226.091,315.855,223.85z M322.242,223.85c0-1.568-0.912-2.977-2.561-2.977s-2.562,1.408-2.562,2.977
			c0,1.585,0.913,2.994,2.562,2.994S322.242,225.435,322.242,223.85z"/>
		<path d="M276.969,241.594c0-3.153,2.145-5.522,5.297-5.522c3.154,0,5.314,2.369,5.314,5.522c0,1.585-0.544,2.961-1.473,3.953
			l1.009,1.073l-0.912,0.8l-1.04-1.104c-0.801,0.513-1.793,0.801-2.898,0.801C279.113,247.116,276.969,244.747,276.969,241.594z
			 M284.299,245.388l-1.521-1.649l0.929-0.784l1.504,1.633c0.625-0.769,0.993-1.809,0.993-2.993c0-2.497-1.553-4.338-3.938-4.338
			c-2.4,0-3.921,1.841-3.921,4.338c0,2.48,1.521,4.338,3.921,4.338C283.035,245.932,283.723,245.739,284.299,245.388z"/>
		<path d="M294.811,246.924v-1.089c-0.592,0.673-1.601,1.281-2.753,1.281c-1.616,0-2.465-0.801-2.465-2.465v-5.459h1.2v5.091
			c0,1.36,0.688,1.761,1.744,1.761c0.93,0,1.825-0.545,2.273-1.169v-5.683h1.201v7.731H294.811z"/>
		<path d="M303.242,246.924v-0.88c-0.625,0.704-1.521,1.072-2.561,1.072c-1.297,0-2.689-0.881-2.689-2.562
			c0-1.744,1.376-2.545,2.689-2.545c1.056,0,1.936,0.336,2.561,1.04v-1.393c0-1.024-0.832-1.616-1.953-1.616
			c-0.928,0-1.681,0.32-2.369,1.072l-0.561-0.832c0.833-0.864,1.825-1.28,3.09-1.28c1.648,0,2.993,0.736,2.993,2.608v5.314H303.242z
			 M303.242,245.291v-1.473c-0.465-0.624-1.281-0.944-2.113-0.944c-1.137,0-1.92,0.704-1.92,1.681c0,0.992,0.783,1.697,1.92,1.697
			C301.961,246.252,302.777,245.932,303.242,245.291z"/>
		<path d="M312.09,246.924v-5.058c0-1.377-0.703-1.793-1.744-1.793c-0.944,0-1.824,0.576-2.289,1.2v5.65h-1.2v-7.731h1.2v1.121
			c0.545-0.656,1.601-1.312,2.77-1.312c1.6,0,2.449,0.816,2.449,2.497v5.426H312.09z"/>
		<path d="M315.928,245.308v-5.059h-1.279v-1.057h1.279v-2.112h1.217v2.112h1.568v1.057h-1.568v4.802
			c0,0.576,0.256,0.993,0.769,0.993c0.353,0,0.656-0.16,0.816-0.337l0.353,0.913c-0.305,0.288-0.736,0.496-1.425,0.496
			C316.504,247.116,315.928,246.46,315.928,245.308z"/>
		<path d="M320.184,237.288c0-0.448,0.368-0.816,0.816-0.816s0.801,0.368,0.801,0.816s-0.353,0.8-0.801,0.8
			S320.184,237.736,320.184,237.288z M320.393,246.924v-7.731h1.199v7.731H320.393z"/>
		<path d="M324.232,245.308v-5.059h-1.281v-1.057h1.281v-2.112h1.217v2.112h1.568v1.057h-1.568v4.802
			c0,0.576,0.256,0.993,0.768,0.993c0.352,0,0.656-0.16,0.816-0.337l0.352,0.913c-0.304,0.288-0.736,0.496-1.424,0.496
			C324.809,247.116,324.232,246.46,324.232,245.308z"/>
		<path d="M328.455,248.86c0.176,0.08,0.465,0.128,0.656,0.128c0.529,0,0.881-0.176,1.152-0.816l0.513-1.168l-3.233-7.812h1.312
			l2.561,6.339l2.578-6.339h1.296l-3.874,9.3c-0.463,1.121-1.248,1.553-2.272,1.569c-0.256,0-0.656-0.049-0.864-0.112
			L328.455,248.86z"/>
	</g>
	<g opacity="0.4">
		<polygon fill="#784E9F" points="122.364,135.39 127.426,126.623 132.488,135.39 		"/>
		<rect x="126.426" y="134.354" fill="#784E9F" width="2" height="18.946"/>
	</g>
	<g opacity="0.4">
		<polygon fill="#784E9F" points="191.06,192.082 199.825,197.143 191.06,202.205 		"/>
		<rect x="173.147" y="196.143" fill="#784E9F" width="18.947" height="2"/>
	</g>
	<g opacity="0.4">
		<polygon fill="#784E9F" points="309.182,192.082 317.948,197.143 309.182,202.205 		"/>
		<rect x="291.271" y="196.143" fill="#784E9F" width="18.946" height="2"/>
	</g>
	<g opacity="0.4">
		<polygon fill="#784E9F" points="427.304,192.082 436.071,197.143 427.304,202.205 		"/>
		<rect x="409.394" y="196.143" fill="#784E9F" width="18.945" height="2"/>
	</g>
	<g opacity="0.5">
		<path d="M23.267,201.646l0.714-0.784c0.617,0.799,1.443,1.247,2.578,1.247c1.274,0,2.157-0.869,2.157-2.003
			c0-1.233-0.883-2.018-2.144-2.018c-0.812,0-1.526,0.267-2.157,0.868l-0.854-0.294v-5.028h5.715v1.036h-4.552v3.25
			c0.462-0.448,1.246-0.841,2.185-0.841c1.569,0,2.984,1.051,2.984,2.983c0,1.892-1.457,3.082-3.334,3.082
			C24.989,203.146,23.967,202.571,23.267,201.646z"/>
		<path d="M33.095,202.978v-7.816l-1.498,1.597l-0.701-0.714l2.34-2.409h1.022v9.343H33.095z"/>
		<path d="M36.104,202.978v-0.938c3.361-2.634,5.196-4.188,5.196-5.799c0-1.205-0.994-1.709-1.961-1.709
			c-1.12,0-1.989,0.476-2.535,1.177l-0.715-0.743c0.715-0.952,1.934-1.471,3.25-1.471c1.555,0,3.138,0.883,3.138,2.746
			c0,1.904-1.933,3.642-4.538,5.701h4.58v1.036H36.104z"/>
		<path d="M52.656,202.978v-7.858l-3.165,7.858h-0.477l-3.18-7.858v7.858h-1.162v-9.343h1.666l2.914,7.199l2.899-7.199h1.667v9.343
			H52.656z"/>
		<path d="M55.998,202.978v-9.343h4.16c1.625,0,2.619,0.98,2.619,2.381c0,1.177-0.784,1.961-1.639,2.144
			c0.995,0.154,1.821,1.177,1.821,2.297c0,1.499-0.995,2.521-2.703,2.521H55.998z M61.573,196.184c0-0.84-0.561-1.513-1.611-1.513
			h-2.801v3.012h2.801C61.013,197.683,61.573,197.038,61.573,196.184z M61.755,200.33c0-0.854-0.588-1.61-1.723-1.61h-2.871v3.222
			h2.871C61.111,201.941,61.755,201.324,61.755,200.33z"/>
	</g>
	<g>
		<path fill="#784E9F" d="M133.083,227.698c-3.111,3.111-8.203,3.111-11.313,0L96.871,202.8c-3.11-3.111-3.11-8.203,0.001-11.314
			l24.897-24.896c3.111-3.111,8.203-3.111,11.314,0l24.896,24.896c3.111,3.111,3.111,8.203,0,11.314L133.083,227.698z"/>
	</g>
	<g>
		<path fill="#FFFFFF" d="M119.894,203.978v-9.919l-2.274,2.316l-1.659-1.742l4.303-4.325h2.541v13.67H119.894z"/>
		<path fill="#FFFFFF" d="M135.649,203.978l-3.422-5l-3.443,5h-3.463l4.959-7.008l-4.652-6.662h3.463l3.137,4.674l3.094-4.674h3.505
			l-4.652,6.641l4.96,7.029H135.649z"/>
	</g>
	<g opacity="0.65">
		<path fill="#784E9F" d="M251.205,227.698c-3.111,3.111-8.203,3.111-11.314,0L214.994,202.8c-3.111-3.111-3.111-8.203,0-11.313
			l24.898-24.898c3.111-3.11,8.203-3.11,11.314,0.001l24.896,24.896c3.111,3.111,3.111,8.203,0,11.314L251.205,227.698z"/>
	</g>
	<g opacity="0.35">
		<path fill="#784E9F" d="M369.326,227.698c-3.111,3.111-8.203,3.111-11.314,0L333.115,202.8c-3.111-3.111-3.111-8.203,0-11.313
			l24.898-24.898c3.111-3.11,8.203-3.11,11.314,0.001l24.896,24.896c3.111,3.111,3.111,8.203,0,11.314L369.326,227.698z"/>
	</g>
	<g opacity="0.15">
		<path fill="#784E9F" d="M487.449,227.698c-3.111,3.111-8.203,3.111-11.314,0L451.238,202.8c-3.111-3.111-3.111-8.203,0-11.314
			l24.897-24.896c3.111-3.111,8.203-3.111,11.314,0l24.896,24.896c3.111,3.111,3.111,8.203,0.001,11.314L487.449,227.698z"/>
	</g>
	<g opacity="0.5">
		<g>
			<path d="M20.774,73.854v-7.816l-1.498,1.597l-0.701-0.714l2.34-2.409h1.022v9.343H20.774z"/>
			<path d="M23.741,69.19c0-2.283,1.009-4.819,3.572-4.819c2.55,0,3.572,2.536,3.572,4.819c0,2.269-1.022,4.832-3.572,4.832
				C24.75,74.022,23.741,71.459,23.741,69.19z M29.694,69.19c0-1.863-0.602-3.782-2.381-3.782s-2.381,1.919-2.381,3.782
				c0,1.862,0.602,3.796,2.381,3.796S29.694,71.053,29.694,69.19z"/>
			<path d="M32.352,73.854v-0.938c3.362-2.634,5.197-4.188,5.197-5.799c0-1.205-0.995-1.709-1.961-1.709
				c-1.121,0-1.989,0.476-2.535,1.177l-0.715-0.743c0.715-0.952,1.933-1.471,3.25-1.471c1.555,0,3.138,0.883,3.138,2.746
				c0,1.904-1.934,3.642-4.539,5.701h4.581v1.036H32.352z"/>
			<path d="M44.716,73.854v-2.367h-4.44v-0.967l4.007-6.009h1.597v5.953h1.316v1.022h-1.316v2.367H44.716z M44.716,65.59
				l-3.277,4.875h3.277V65.59z"/>
			<path d="M56.717,73.854v-7.858l-3.166,7.858h-0.477l-3.18-7.858v7.858h-1.162v-9.343h1.666l2.914,7.199l2.899-7.199h1.667v9.343
				H56.717z"/>
			<path d="M60.058,73.854v-9.343h4.16c1.625,0,2.619,0.98,2.619,2.381c0,1.177-0.784,1.961-1.639,2.144
				c0.995,0.154,1.821,1.177,1.821,2.297c0,1.499-0.994,2.521-2.703,2.521H60.058z M65.633,67.061c0-0.84-0.561-1.513-1.611-1.513
				h-2.801v3.012h2.801C65.072,68.56,65.633,67.915,65.633,67.061z M65.814,71.207c0-0.854-0.588-1.61-1.723-1.61h-2.871v3.222
				h2.871C65.171,72.818,65.814,72.201,65.814,71.207z"/>
		</g>
	</g>
	<g>
		<path fill="#784E9F" d="M82.171,73.738c-3.111-3.111-3.111-8.202,0-11.313l39.599-39.597c3.111-3.111,8.203-3.111,11.313,0
			l39.597,39.598c3.11,3.111,3.11,8.203-0.001,11.314l-39.595,39.596c-3.111,3.111-8.203,3.111-11.314,0L82.171,73.738z"/>
	</g>
	<g>
		<path fill="#FFFFFF" d="M115.372,75.019v-2.295c5.594-4.14,7.234-5.533,7.234-7.213c0-1.211-1.087-1.783-2.214-1.783
			c-1.558,0-2.747,0.615-3.669,1.578l-1.659-1.927c1.332-1.537,3.36-2.234,5.267-2.234c2.93,0,5.226,1.641,5.226,4.366
			c0,2.335-1.926,4.364-5.472,6.946h5.574v2.562H115.372z"/>
		<path fill="#FFFFFF" d="M136.966,75.019l-3.422-5l-3.442,5h-3.464l4.96-7.008l-4.652-6.661h3.464l3.135,4.674l3.095-4.674h3.504
			l-4.651,6.64l4.959,7.029H136.966z"/>
	</g>
</g>
</svg>
